<svg width="359" height="131" viewBox="0 0 359 131" fill="none" xmlns="http://www.w3.org/2000/svg">
<rect width="359" height="130.298" rx="8" fill="#E43D12"/>
<path d="M46.7837 57.4545H49.859V66.9006C49.859 67.9612 49.6057 68.8892 49.0991 69.6847C48.5972 70.4801 47.8941 71.1004 46.9897 71.5455C46.0853 71.9858 45.0318 72.206 43.8292 72.206C42.6218 72.206 41.5659 71.9858 40.6616 71.5455C39.7572 71.1004 39.0541 70.4801 38.5522 69.6847C38.0503 68.8892 37.7994 67.9612 37.7994 66.9006V57.4545H40.8746V66.6378C40.8746 67.1918 40.9954 67.6842 41.2369 68.1151C41.4831 68.5459 41.8287 68.8845 42.2738 69.1307C42.7189 69.3769 43.2373 69.5 43.8292 69.5C44.4258 69.5 44.9442 69.3769 45.3846 69.1307C45.8297 68.8845 46.1729 68.5459 46.4144 68.1151C46.6606 67.6842 46.7837 67.1918 46.7837 66.6378V57.4545ZM52.3892 72V57.4545H58.1278C59.2311 57.4545 60.1709 57.6652 60.9474 58.0866C61.724 58.5033 62.3158 59.0833 62.723 59.8267C63.1349 60.5653 63.3409 61.4176 63.3409 62.3835C63.3409 63.3494 63.1326 64.2017 62.7159 64.9403C62.2992 65.679 61.6955 66.2543 60.9048 66.6662C60.1188 67.0781 59.1671 67.2841 58.0497 67.2841H54.392V64.8196H57.5526C58.1444 64.8196 58.6321 64.7178 59.0156 64.5142C59.4039 64.3059 59.6927 64.0194 59.8821 63.6548C60.0762 63.2855 60.1733 62.8617 60.1733 62.3835C60.1733 61.9006 60.0762 61.4792 59.8821 61.1193C59.6927 60.7547 59.4039 60.473 59.0156 60.2741C58.6274 60.0705 58.1349 59.9688 57.5384 59.9688H55.4645V72H52.3892ZM65.3384 72V57.4545H68.4137V69.4645H74.6495V72H65.3384ZM89.4862 64.7273C89.4862 66.3134 89.1855 67.6629 88.5842 68.7756C87.9876 69.8883 87.1732 70.7382 86.141 71.3253C85.1135 71.9077 83.9582 72.1989 82.6751 72.1989C81.3825 72.1989 80.2224 71.9053 79.195 71.3182C78.1675 70.7311 77.3555 69.8812 76.7589 68.7685C76.1623 67.6558 75.864 66.3087 75.864 64.7273C75.864 63.1411 76.1623 61.7917 76.7589 60.679C77.3555 59.5663 78.1675 58.7187 79.195 58.1364C80.2224 57.5492 81.3825 57.2557 82.6751 57.2557C83.9582 57.2557 85.1135 57.5492 86.141 58.1364C87.1732 58.7187 87.9876 59.5663 88.5842 60.679C89.1855 61.7917 89.4862 63.1411 89.4862 64.7273ZM86.3683 64.7273C86.3683 63.6998 86.2144 62.8333 85.9066 62.1278C85.6036 61.4223 85.1751 60.8873 84.6211 60.5227C84.0671 60.1581 83.4184 59.9759 82.6751 59.9759C81.9317 59.9759 81.283 60.1581 80.729 60.5227C80.1751 60.8873 79.7442 61.4223 79.4364 62.1278C79.1334 62.8333 78.9819 63.6998 78.9819 64.7273C78.9819 65.7547 79.1334 66.6212 79.4364 67.3267C79.7442 68.0322 80.1751 68.5672 80.729 68.9318C81.283 69.2964 81.9317 69.4787 82.6751 69.4787C83.4184 69.4787 84.0671 69.2964 84.6211 68.9318C85.1751 68.5672 85.6036 68.0322 85.9066 67.3267C86.2144 66.6212 86.3683 65.7547 86.3683 64.7273ZM93.451 72H90.1555L95.1768 57.4545H99.1399L104.154 72H100.859L97.2152 60.7784H97.1016L93.451 72ZM93.245 66.2827H101.029V68.6832H93.245V66.2827ZM111.061 72H105.905V57.4545H111.104C112.567 57.4545 113.826 57.7457 114.882 58.3281C115.938 58.9058 116.75 59.7367 117.318 60.821C117.891 61.9053 118.178 63.2027 118.178 64.7131C118.178 66.2282 117.891 67.5303 117.318 68.6193C116.75 69.7083 115.933 70.544 114.868 71.1264C113.807 71.7088 112.538 72 111.061 72ZM108.98 69.3651H110.933C111.842 69.3651 112.607 69.2041 113.227 68.8821C113.852 68.5554 114.321 68.0511 114.634 67.3693C114.951 66.6828 115.109 65.7973 115.109 64.7131C115.109 63.6383 114.951 62.7599 114.634 62.0781C114.321 61.3963 113.855 60.8944 113.234 60.5724C112.614 60.2505 111.849 60.0895 110.94 60.0895H108.98V69.3651ZM128.16 57.4545V72H125.085V57.4545H128.16ZM130.69 57.4545H134.483L138.488 67.2273H138.659L142.664 57.4545H146.457V72H143.474V62.5327H143.353L139.589 71.929H137.558L133.794 62.4972H133.673V72H130.69V57.4545ZM151.498 72H148.202L153.224 57.4545H157.187L162.201 72H158.906L155.262 60.7784H155.148L151.498 72ZM151.292 66.2827H159.076V68.6832H151.292V66.2827ZM172.913 62.1562C172.814 61.8106 172.674 61.5052 172.494 61.2401C172.314 60.9702 172.094 60.7429 171.833 60.5582C171.578 60.3688 171.284 60.2244 170.953 60.125C170.626 60.0256 170.264 59.9759 169.866 59.9759C169.123 59.9759 168.469 60.1605 167.906 60.5298C167.347 60.8991 166.912 61.4366 166.599 62.142C166.287 62.8428 166.13 63.6998 166.13 64.7131C166.13 65.7263 166.284 66.5881 166.592 67.2983C166.9 68.0085 167.335 68.5507 167.899 68.9247C168.462 69.294 169.127 69.4787 169.895 69.4787C170.591 69.4787 171.185 69.3556 171.677 69.1094C172.174 68.8584 172.553 68.5057 172.814 68.0511C173.079 67.5966 173.211 67.0592 173.211 66.4389L173.836 66.5312H170.086V64.2159H176.173V66.0483C176.173 67.3267 175.903 68.4252 175.363 69.3438C174.824 70.2576 174.08 70.9631 173.133 71.4602C172.186 71.9527 171.102 72.1989 169.88 72.1989C168.517 72.1989 167.319 71.8982 166.287 71.2969C165.254 70.6908 164.449 69.8314 163.872 68.7188C163.299 67.6013 163.012 66.2756 163.012 64.7415C163.012 63.5625 163.183 62.5114 163.524 61.5881C163.869 60.66 164.352 59.8741 164.973 59.2301C165.593 58.5862 166.315 58.0961 167.139 57.7599C167.963 57.4238 168.855 57.2557 169.816 57.2557C170.64 57.2557 171.407 57.3764 172.118 57.6179C172.828 57.8546 173.458 58.1908 174.007 58.6264C174.561 59.062 175.013 59.5805 175.363 60.1818C175.714 60.7784 175.939 61.4366 176.038 62.1562H172.913ZM178.483 72V57.4545H188.284V59.9901H181.558V63.456H187.78V65.9915H181.558V69.4645H188.312V72H178.483Z" fill="white"/>
<path fill-rule="evenodd" clip-rule="evenodd" d="M262.175 64.4075C262.175 65.9749 260.875 67.2748 259.308 67.2748C257.74 67.2748 256.44 65.9749 256.44 64.4075C256.44 46.9362 269.897 32.5233 287.025 31.0706V28.0886C287.025 26.5211 288.324 25.2213 289.892 25.2213C291.459 25.2213 292.759 26.5211 292.759 28.0886V31.0706C309.886 32.5233 323.343 46.9362 323.343 64.4075C323.343 65.9749 322.044 67.2748 320.476 67.2748C318.909 67.2748 317.609 65.9749 317.609 64.4075C317.609 49.1153 305.184 36.6904 289.892 36.6904C274.6 36.6904 262.175 49.1153 262.175 64.4075ZM255.481 71.0978H324.142C325.71 71.0978 327.01 72.3977 327.01 73.9651C327.01 75.5326 325.71 76.8324 324.142 76.8324H317.758L307.856 87.7281C303.498 92.4686 301.204 94.9536 298.069 96.4446C294.896 97.9738 291.455 98.2032 285.186 98.5855L272.761 99.3883C270.199 99.5413 269.014 99.6559 268.211 100C267.447 100.344 266.682 101.109 264.771 103.02L261.215 106.576C260.642 107.149 259.915 107.417 259.189 107.417C258.463 107.417 257.736 107.149 257.163 106.576C256.63 106.036 256.331 105.308 256.331 104.549C256.331 103.791 256.63 103.063 257.163 102.523L260.718 98.9678C262.821 96.8651 264.083 95.6035 265.879 94.8007C267.638 93.9978 269.435 93.8449 272.455 93.692L284.88 92.8892L285.537 92.8433C290.836 92.4916 293.566 92.3081 295.661 91.2835C297.771 90.301 299.622 88.2824 303.269 84.3026L303.422 84.1344L310.074 76.8324H304.377L298.375 82.8346C298.159 83.0385 297.978 83.2118 297.832 83.3545C297.641 83.5486 297.439 83.7324 297.228 83.905C295.623 85.3195 293.558 86.1988 291.303 86.3518C291.035 86.39 290.614 86.39 289.812 86.39H276.431C274.863 86.39 273.564 85.0902 273.564 83.5227C273.564 81.9553 274.863 80.6554 276.431 80.6554H286.868C286.486 78.7821 285.033 77.3294 283.121 76.9471C282.662 76.8324 281.783 76.8324 280.292 76.8324H277.31C273.602 76.8324 271.729 76.8324 270.199 77.2147C268.976 77.4823 267.906 77.9411 266.988 78.5145C265.573 79.3556 264.274 80.6554 261.636 83.2933L249.861 95.1065C248.752 96.2152 246.917 96.2152 245.808 95.1065C245.275 94.5669 244.976 93.8389 244.976 93.0803C244.976 92.3217 245.275 91.5937 245.808 91.0541L257.583 79.2791C258.539 78.3234 259.342 77.5205 260.068 76.8324H255.481C253.913 76.8324 252.613 75.5326 252.613 73.9651C252.613 72.3977 253.913 71.0978 255.481 71.0978ZM294.112 79.0345L294.361 78.7821L296.311 76.8324H291.57C291.991 77.6735 292.335 78.591 292.526 79.5467C292.602 79.7379 292.641 79.9673 292.641 80.1584C292.985 79.9673 293.291 79.7761 293.596 79.5085C293.783 79.3666 293.955 79.2079 294.112 79.0345Z" fill="#EBE9E1"/>
</svg>
