<svg width="281" height="181" viewBox="0 0 281 181" fill="none" xmlns="http://www.w3.org/2000/svg">
<rect width="281" height="180.519" rx="24" fill="#E43D12"/>
<path fill-rule="evenodd" clip-rule="evenodd" d="M110.934 85.5395C110.934 87.519 109.292 89.1605 107.313 89.1605C105.333 89.1605 103.692 87.519 103.692 85.5395C103.692 63.4754 120.687 45.2737 142.316 43.439V39.6732C142.316 37.6937 143.958 36.0522 145.937 36.0522C147.917 36.0522 149.558 37.6937 149.558 39.6732V43.439C171.188 45.2737 188.182 63.4754 188.182 85.5395C188.182 87.519 186.541 89.1605 184.561 89.1605C182.582 89.1605 180.94 87.519 180.94 85.5395C180.94 66.2273 165.249 50.5362 145.937 50.5362C126.625 50.5362 110.934 66.2273 110.934 85.5395ZM102.48 93.9885H189.192C191.171 93.9885 192.813 95.63 192.813 97.6095C192.813 99.589 191.171 101.231 189.192 101.231H181.129L168.624 114.99C163.12 120.977 160.223 124.115 156.264 125.998C152.257 127.93 147.912 128.219 139.994 128.702L124.303 129.716C121.068 129.909 119.571 130.054 118.557 130.488C117.592 130.923 116.626 131.889 114.212 134.303L109.722 138.793C108.998 139.517 108.081 139.855 107.163 139.855C106.246 139.855 105.329 139.517 104.604 138.793C103.931 138.111 103.553 137.192 103.553 136.234C103.553 135.276 103.931 134.356 104.604 133.675L109.094 129.185C111.75 126.529 113.343 124.936 115.612 123.922C117.833 122.908 120.102 122.715 123.917 122.522L139.608 121.508L140.438 121.45C147.13 121.006 150.577 120.774 153.223 119.481C155.888 118.24 158.225 115.691 162.83 110.665L163.024 110.452L171.424 101.231H164.231L156.651 108.811C156.377 109.068 156.148 109.287 155.965 109.467C155.723 109.712 155.469 109.944 155.202 110.162C153.174 111.949 150.567 113.059 147.719 113.252C147.381 113.301 146.85 113.301 145.836 113.301H128.938C126.958 113.301 125.317 111.659 125.317 109.68C125.317 107.7 126.958 106.059 128.938 106.059H142.118C141.635 103.693 139.801 101.858 137.387 101.375C136.807 101.231 135.697 101.231 133.814 101.231H130.048C125.365 101.231 122.999 101.231 121.068 101.713C119.523 102.051 118.171 102.631 117.012 103.355C115.226 104.417 113.585 106.059 110.253 109.39L95.3829 124.309C93.9828 125.709 91.6653 125.709 90.2652 124.309C89.5918 123.627 89.2141 122.708 89.2141 121.75C89.2141 120.792 89.5918 119.872 90.2652 119.191L105.136 104.321C106.343 103.113 107.356 102.1 108.274 101.231H102.48C100.501 101.231 98.8591 99.589 98.8591 97.6095C98.8591 95.63 100.501 93.9885 102.48 93.9885ZM151.267 104.012L151.581 103.693L154.043 101.231H148.057C148.588 102.293 149.022 103.451 149.264 104.658C149.36 104.9 149.409 105.19 149.409 105.431C149.843 105.19 150.229 104.948 150.616 104.61C150.851 104.431 151.069 104.231 151.267 104.012Z" fill="#EBE9E1"/>
</svg>
