<svg width="30" height="30" viewBox="0 0 30 30" fill="none" xmlns="http://www.w3.org/2000/svg">
<mask id="path-1-inside-1_9_599" fill="white">
<path fill-rule="evenodd" clip-rule="evenodd" d="M13.1875 0.0833321C11.0979 0.0835101 9.03866 0.583394 7.18156 1.54128C5.32445 2.49916 3.72335 3.88727 2.51182 5.58979C1.30029 7.2923 0.513468 9.25987 0.217003 11.3283C-0.0794622 13.3968 0.123024 15.5061 0.807569 17.4804C1.49211 19.4547 2.63887 21.2366 4.15215 22.6776C5.66544 24.1185 7.50137 25.1767 9.50679 25.7638C11.5122 26.3509 13.6289 26.4499 15.6804 26.0526C17.7319 25.6552 19.6586 24.7731 21.2997 23.4797L26.9299 29.1098C27.2207 29.3907 27.6101 29.546 28.0143 29.5425C28.4185 29.539 28.8052 29.3769 29.091 29.0911C29.3769 28.8052 29.539 28.4185 29.5425 28.0143C29.546 27.6101 29.3907 27.2207 29.1098 26.9299L23.4797 21.2997C25.0028 19.3675 25.9512 17.0454 26.2163 14.5992C26.4813 12.1531 26.0524 9.68178 24.9785 7.46806C23.9046 5.25434 22.2292 3.38767 20.144 2.08169C18.0587 0.775705 15.6479 0.0831669 13.1875 0.0833321ZM3.16666 13.1875C3.16666 10.5298 4.22242 7.98097 6.10169 6.1017C7.98097 4.22243 10.5298 3.16667 13.1875 3.16667C15.8452 3.16667 18.394 4.22243 20.2733 6.1017C22.1526 7.98097 23.2083 10.5298 23.2083 13.1875C23.2083 15.8452 22.1526 18.394 20.2733 20.2733C18.394 22.1526 15.8452 23.2083 13.1875 23.2083C10.5298 23.2083 7.98097 22.1526 6.10169 20.2733C4.22242 18.394 3.16666 15.8452 3.16666 13.1875Z"/>
</mask>
<path fill-rule="evenodd" clip-rule="evenodd" d="M13.1875 0.0833321C11.0979 0.0835101 9.03866 0.583394 7.18156 1.54128C5.32445 2.49916 3.72335 3.88727 2.51182 5.58979C1.30029 7.2923 0.513468 9.25987 0.217003 11.3283C-0.0794622 13.3968 0.123024 15.5061 0.807569 17.4804C1.49211 19.4547 2.63887 21.2366 4.15215 22.6776C5.66544 24.1185 7.50137 25.1767 9.50679 25.7638C11.5122 26.3509 13.6289 26.4499 15.6804 26.0526C17.7319 25.6552 19.6586 24.7731 21.2997 23.4797L26.9299 29.1098C27.2207 29.3907 27.6101 29.546 28.0143 29.5425C28.4185 29.539 28.8052 29.3769 29.091 29.0911C29.3769 28.8052 29.539 28.4185 29.5425 28.0143C29.546 27.6101 29.3907 27.2207 29.1098 26.9299L23.4797 21.2997C25.0028 19.3675 25.9512 17.0454 26.2163 14.5992C26.4813 12.1531 26.0524 9.68178 24.9785 7.46806C23.9046 5.25434 22.2292 3.38767 20.144 2.08169C18.0587 0.775705 15.6479 0.0831669 13.1875 0.0833321ZM3.16666 13.1875C3.16666 10.5298 4.22242 7.98097 6.10169 6.1017C7.98097 4.22243 10.5298 3.16667 13.1875 3.16667C15.8452 3.16667 18.394 4.22243 20.2733 6.1017C22.1526 7.98097 23.2083 10.5298 23.2083 13.1875C23.2083 15.8452 22.1526 18.394 20.2733 20.2733C18.394 22.1526 15.8452 23.2083 13.1875 23.2083C10.5298 23.2083 7.98097 22.1526 6.10169 20.2733C4.22242 18.394 3.16666 15.8452 3.16666 13.1875Z" fill="#FFA2B6"/>
<path d="M13.1875 0.0833321L13.1849 -37.9167H13.1843L13.1875 0.0833321ZM21.2997 23.4797L48.1698 -3.3904L24.2962 -27.264L-2.22125 -6.36598L21.2997 23.4797ZM26.9299 29.1098L0.0598555 55.9799L0.293347 56.2134L0.530861 56.4428L26.9299 29.1098ZM29.1098 26.9299L56.4428 0.530866L56.2134 0.293352L55.9799 0.0598598L29.1098 26.9299ZM23.4797 21.2997L-6.36343 -2.22449L-27.2666 24.2936L-3.3904 48.1698L23.4797 21.2997ZM3.16666 13.1875H-34.8333H3.16666ZM13.1875 3.16667V-34.8333V3.16667ZM23.2083 13.1875H61.2083H23.2083ZM13.1843 -37.9167C5.0352 -37.916 -2.99554 -35.9665 -10.2379 -32.2309L24.6011 35.3135C21.0729 37.1333 17.1606 38.083 13.1907 38.0833L13.1843 -37.9167ZM-10.2379 -32.2309C-17.4804 -28.4953 -23.7244 -23.0819 -28.4492 -16.4424L33.4728 27.6219C31.1711 30.8565 28.1293 33.4936 24.6011 35.3135L-10.2379 -32.2309ZM-28.4492 -16.4424C-33.174 -9.80282 -36.2424 -2.12964 -37.3986 5.93698L37.8326 16.7197C37.2694 20.6494 35.7745 24.3874 33.4728 27.6219L-28.4492 -16.4424ZM-37.3986 5.93698C-38.5548 14.0036 -37.7651 22.2298 -35.0955 29.9291L36.7106 5.03167C38.0111 8.78249 38.3958 12.7899 37.8326 16.7197L-37.3986 5.93698ZM-35.0955 29.9291C-32.4259 37.6285 -27.9537 44.5778 -22.0521 50.1973L30.3564 -4.84214C33.2314 -2.10457 35.4101 1.28085 36.7106 5.03167L-35.0955 29.9291ZM-22.0521 50.1973C-16.1506 55.8168 -8.99072 59.9435 -1.16992 62.2331L20.1835 -10.7055C23.9935 -9.59007 27.4815 -7.57971 30.3564 -4.84214L-22.0521 50.1973ZM-1.16992 62.2331C6.65088 64.5227 14.9058 64.9088 22.9062 63.3592L8.45461 -11.2541C12.3521 -12.009 16.3735 -11.8209 20.1835 -10.7055L-1.16992 62.2331ZM22.9062 63.3592C30.9065 61.8097 38.4204 58.3694 44.8207 53.3253L-2.22125 -6.36598C0.896754 -8.82325 4.55718 -10.4992 8.45461 -11.2541L22.9062 63.3592ZM-5.57031 50.3497L0.0598555 55.9799L53.8 2.23977L48.1698 -3.3904L-5.57031 50.3497ZM0.530861 56.4428C7.98852 63.6456 17.9768 67.6312 28.3445 67.5411L27.6841 -8.45603C37.2434 -8.5391 46.4528 -4.86432 53.329 1.77688L0.530861 56.4428ZM28.3445 67.5411C38.7121 67.451 48.6297 63.2925 55.9611 55.9611L2.22099 2.22099C8.98075 -4.53876 18.125 -8.37296 27.6841 -8.45603L28.3445 67.5411ZM55.9611 55.9611C63.2925 48.6297 67.451 38.7121 67.5411 28.3445L-8.45603 27.6841C-8.37297 18.125 -4.53877 8.98075 2.22099 2.22099L55.9611 55.9611ZM67.5411 28.3445C67.6312 17.9768 63.6456 7.98852 56.4428 0.530866L1.77687 53.329C-4.86432 46.4528 -8.5391 37.2434 -8.45603 27.6841L67.5411 28.3445ZM55.9799 0.0598598L50.3497 -5.57031L-3.3904 48.1698L2.23976 53.8L55.9799 0.0598598ZM53.3228 44.824C59.2629 37.2883 62.9614 28.2326 63.9951 18.6931L-11.5626 10.5054C-11.059 5.85818 -9.25721 1.44659 -6.36343 -2.22449L53.3228 44.824ZM63.9951 18.6931C65.0288 9.15359 63.356 -0.48423 59.168 -9.1174L-9.211 24.0535C-11.2512 19.8478 -12.0662 15.1526 -11.5626 10.5054L63.9951 18.6931ZM59.168 -9.1174C54.98 -17.7506 48.4461 -25.0303 40.314 -30.1234L-0.0261325 34.2868C-3.98774 31.8056 -7.17079 28.2592 -9.211 24.0535L59.168 -9.1174ZM40.314 -30.1234C32.182 -35.2165 22.7803 -37.9173 13.1849 -37.9167L13.19 38.0833C8.51559 38.0836 3.93548 36.7679 -0.0261325 34.2868L40.314 -30.1234ZM41.1667 13.1875C41.1667 20.608 38.2189 27.7246 32.9718 32.9718L-20.7684 -20.7684C-29.774 -11.7627 -34.8333 0.451586 -34.8333 13.1875H41.1667ZM32.9718 32.9718C27.7246 38.2189 20.608 41.1667 13.1875 41.1667V-34.8333C0.451581 -34.8333 -11.7627 -29.774 -20.7684 -20.7684L32.9718 32.9718ZM13.1875 41.1667C5.76696 41.1667 -1.34965 38.2189 -6.59676 32.9718L47.1434 -20.7684C38.1377 -29.774 25.9234 -34.8333 13.1875 -34.8333V41.1667ZM-6.59676 32.9718C-11.8439 27.7246 -14.7917 20.608 -14.7917 13.1875H61.2083C61.2083 0.451586 56.149 -11.7627 47.1434 -20.7684L-6.59676 32.9718ZM-14.7917 13.1875C-14.7917 5.76697 -11.8439 -1.34965 -6.59676 -6.59676L47.1434 47.1434C56.149 38.1377 61.2083 25.9234 61.2083 13.1875H-14.7917ZM-6.59676 -6.59676C-1.34965 -11.8439 5.76696 -14.7917 13.1875 -14.7917V61.2083C25.9234 61.2083 38.1377 56.149 47.1434 47.1434L-6.59676 -6.59676ZM13.1875 -14.7917C20.608 -14.7917 27.7246 -11.8439 32.9718 -6.59676L-20.7684 47.1434C-11.7627 56.149 0.451581 61.2083 13.1875 61.2083V-14.7917ZM32.9718 -6.59676C38.2189 -1.34965 41.1667 5.76697 41.1667 13.1875H-34.8333C-34.8333 25.9234 -29.774 38.1377 -20.7684 47.1434L32.9718 -6.59676Z" fill="#FFA2B6" mask="url(#path-1-inside-1_9_599)"/>
</svg>
